<?xml version="1.0" encoding="UTF-8"?>
<svg id="Layer_1" data-name="Layer 1" xmlns="http://www.w3.org/2000/svg" viewBox="0 0 752.28 150.32">
  <defs>
    <style>
      .cls-1 {
        fill: #d3ae37;
      }

      .cls-1, .cls-2 {
        stroke-width: 0px;
      }

      .cls-2 {
        fill: #092d64;
      }
    </style>
  </defs>
  <path class="cls-1" d="M105.71,0c4.8,0,9.12,2.89,10.96,7.32l13.1,31.61c3.24,7.81-2.5,16.41-10.96,16.41H30.87c-4.8,0-9.12-2.89-10.96-7.32L0,0h105.71ZM40.13,86.35v51.73c0,8.46,8.6,14.2,16.41,10.96l31.61-13.1c4.43-1.84,7.32-6.16,7.32-10.96V55.49s-48.02,19.91-48.02,19.91c-4.43,1.84-7.32,6.16-7.32,10.96Z"/>
  <path class="cls-2" d="M181.22,119.01v-58.38c0-1.37-1.11-2.48-2.48-2.48h-18.86c-1.37,0-2.48-1.11-2.48-2.48v-15.99c0-1.37,1.11-2.48,2.48-2.48h18.86c1.37,0,2.48-1.11,2.48-2.48V5.29c0-1.37,1.11-2.48,2.48-2.48h21.95c1.37,0,2.48,1.11,2.48,2.48v29.44c0,1.37,1.11,2.48,2.48,2.48h24.15c1.37,0,2.48,1.11,2.48,2.48v15.99c0,1.37-1.11,2.48-2.48,2.48h-24.15c-1.37,0-2.48,1.11-2.48,2.48v51.71c0,6.97,5.65,12.62,12.62,12.62h18.42c1.37,0,2.48,1.11,2.48,2.48v17.09c0,1.37-1.11,2.48-2.48,2.48h-30.16c-8.82,0-15.65-2.46-20.5-7.39-4.85-4.92-7.28-11.8-7.28-20.62ZM243.8,118.79c0-14.11,6.25-24.32,18.74-30.65,11.91-6.24,27.92-10.42,48.04-12.56,1.26-.13,2.23-1.19,2.23-2.46v-1.52c0-11.47-6.69-17.2-20.06-17.2s-21.8,5.35-25.36,16.03c-.42,1.26-1.76,1.98-3.05,1.64l-19.87-5.19c-1.3-.34-2.09-1.66-1.8-2.97,1.73-7.81,6.73-14.62,15.01-20.43,9.11-6.39,20.8-9.59,35.06-9.59,15.14,0,26.71,3.49,34.73,10.47,8.01,6.99,12.02,17.16,12.02,30.54v44.32c0,2.79.4,4.6,1.21,5.4.81.81,2.61,1.21,5.4,1.21h7.89c1.37,0,2.48,1.11,2.48,2.48v16.21c0,1.37-1.11,2.48-2.48,2.48h-8.99c-8.82,0-14.74-1.62-17.75-4.85-2.75-2.94-4.36-8.21-4.85-15.79-.08-1.29-1.17-2.29-2.47-2.29h-5.31c-1.08,0-2.01.71-2.35,1.74-2.41,7.27-6.27,13.08-11.59,17.45-5.73,4.7-12.94,7.06-21.61,7.06-10.58,0-19.11-2.83-25.58-8.49-6.47-5.66-9.7-13.34-9.7-23.04ZM312.81,101.81v-6.04c0-1.48-1.29-2.64-2.76-2.46-12.45,1.51-21.93,3.94-28.44,7.29-6.98,3.6-10.47,8.78-10.47,15.54,0,4.41,1.43,7.83,4.3,10.25,2.87,2.42,6.95,3.64,12.24,3.64,7.2,0,13.19-2.46,17.97-7.39,4.77-4.92,7.17-11.87,7.17-20.84ZM353,92.11c0-17.2,5.03-31.2,15.1-42,10.07-10.8,22.74-16.2,38.04-16.2s28.08,5.26,37.48,15.76c9.41,10.51,14.11,24.07,14.11,40.68,0,1.77-.08,3.79-.25,6.06-.1,1.3-1.17,2.32-2.47,2.32h-72.69c-1.47,0-2.6,1.27-2.47,2.74.77,8.78,3.36,15.48,7.76,20.08,4.85,5.07,11.25,7.61,19.18,7.61,11.41,0,20.05-5.93,25.93-17.78.57-1.15,1.9-1.72,3.1-1.27l19.69,7.34c1.32.49,1.99,2.01,1.42,3.3-8.83,19.72-25.62,29.58-50.36,29.58-16.31,0-29.33-5.18-39.03-15.54-9.7-10.36-14.55-24.59-14.55-42.67ZM383.5,78.88h44.4c1.49,0,2.65-1.32,2.47-2.79-.81-6.47-3.11-11.64-6.91-15.51-4.34-4.41-10.11-6.62-17.31-6.62-6.76,0-12.46,2.2-17.09,6.62-4.03,3.83-6.69,8.94-8,15.33-.31,1.53.87,2.97,2.44,2.97ZM467.99,144.54V39.68c0-1.37,1.11-2.48,2.48-2.48h19.88c1.46,0,2.56,1.19,2.48,2.65-.48,8.36-3.2,17.06-8.16,26.09-.91,1.65.27,3.67,2.16,3.67h6.32c1.15,0,2.14-.81,2.4-1.92,2.53-10.51,6.46-18.46,11.8-23.87,5.66-5.73,13.85-8.6,24.58-8.6,2.02,0,3.99.11,5.93.34,1.26.15,2.22,1.2,2.22,2.47v22.56c0,1.48-1.29,2.63-2.76,2.45-2.73-.32-5.78-.48-9.15-.48-11.76,0-20.25,3.05-25.47,9.15-5.22,6.1-7.83,16.13-7.83,30.1v42.72c0,1.37-1.11,2.48-2.48,2.48h-21.95c-1.37,0-2.48-1.11-2.48-2.48ZM542.49,118.79c0-14.11,6.25-24.32,18.74-30.65,11.91-6.24,27.93-10.42,48.04-12.56,1.26-.13,2.23-1.19,2.23-2.46v-1.52c0-11.47-6.69-17.2-20.06-17.2s-21.8,5.35-25.36,16.03c-.42,1.26-1.76,1.98-3.05,1.64l-19.87-5.19c-1.3-.34-2.09-1.66-1.8-2.97,1.73-7.81,6.73-14.62,15.01-20.43,9.11-6.39,20.8-9.59,35.06-9.59,15.14,0,26.71,3.49,34.73,10.47,8.01,6.99,12.02,17.16,12.02,30.54v44.32c0,2.79.4,4.6,1.21,5.4.8.81,2.61,1.21,5.4,1.21h7.89c1.37,0,2.48,1.11,2.48,2.48v16.21c0,1.37-1.11,2.48-2.48,2.48h-8.99c-8.82,0-14.74-1.62-17.75-4.85-2.75-2.94-4.36-8.21-4.85-15.79-.08-1.29-1.17-2.29-2.47-2.29h-5.31c-1.08,0-2.01.71-2.35,1.74-2.41,7.27-6.27,13.08-11.59,17.45-5.73,4.7-12.94,7.06-21.61,7.06-10.58,0-19.11-2.83-25.58-8.49-6.47-5.66-9.7-13.34-9.7-23.04ZM611.5,101.81v-6.04c0-1.48-1.29-2.64-2.76-2.46-12.45,1.51-21.93,3.94-28.44,7.29-6.98,3.6-10.47,8.78-10.47,15.54,0,4.41,1.43,7.83,4.3,10.25,2.87,2.42,6.95,3.64,12.24,3.64,7.2,0,13.19-2.46,17.97-7.39,4.78-4.92,7.17-11.87,7.17-20.84ZM655.77,118.05l20.12-6.59c1.32-.43,2.75.32,3.13,1.66,3.23,11.28,11.85,16.92,25.85,16.92,6.17,0,10.99-1.1,14.44-3.31,3.45-2.2,5.18-5.29,5.18-9.26,0-3.53-1.21-6.4-3.64-8.6-2.42-2.2-6.65-3.89-12.68-5.07l-14.55-2.65c-12.06-2.5-20.99-6.17-26.79-11.02-5.81-4.85-8.71-12.2-8.71-22.05s4.15-18.37,12.46-24.7c8.3-6.32,19-9.48,32.08-9.48,12.2,0,22.19,2.53,29.99,7.6,6.95,4.53,11.91,10.02,14.89,16.48.59,1.28.02,2.79-1.27,3.35l-18.1,7.73c-1.26.54-2.72-.02-3.28-1.27-4.34-9.66-12.04-14.49-23.11-14.49-5.73,0-10.18,1.14-13.34,3.42-3.16,2.28-4.74,5.26-4.74,8.93,0,3.23,1.17,5.77,3.53,7.61,2.35,1.84,6.76,3.42,13.23,4.74l14.33,2.64c10.29,1.91,19.11,5.59,26.46,11.03,7.35,5.29,11.02,13.01,11.02,23.15,0,10.73-4.34,19.29-13.01,25.69-8.67,6.4-20.51,9.59-35.5,9.59-12.5,0-23.41-2.83-32.74-8.49-8.54-5.17-14.15-11.97-16.85-20.41-.42-1.31.27-2.72,1.58-3.15Z"/>
</svg>